<svg xmlns="http://www.w3.org/2000/svg" width="37.683mm" height="37.656mm" viewBox="0 0 106.817 106.743">
  <g>
    <path d="M83.521,35.081c3.565,0,4.56-2.721,4.56-5.765V17.992c0-3.036-1-5.757-4.56-5.757-3.406,0-4.558,2.826-4.558,5.757V29.316C78.963,32.3,80.115,35.081,83.521,35.081Z" fill="none"/>
    <polygon points="16.094 74.918 22.441 74.918 22.441 105.372 32.348 105.372 32.348 66.577 16.094 66.577 16.094 74.918" fill="#fff"/>
    <path d="M77.755,42.584a15.451,15.451,0,0,0,5.92,1.2,14.949,14.949,0,0,0,6.394-1.412c5.454-2.517,7.916-7.492,7.916-13.312V18.262c0-6.088-2.724-11.012-8.382-13.477A15.365,15.365,0,0,0,83.675,3.53a16.192,16.192,0,0,0-5.868,1.15c-5.872,2.358-8.754,7.337-8.754,13.582V29.057C69.053,35.239,71.99,40.166,77.755,42.584Zm1.208-24.592c0-2.931,1.152-5.757,4.558-5.757,3.565,0,4.56,2.721,4.56,5.757V29.316c0,3.044-1,5.765-4.56,5.765-3.406,0-4.558-2.781-4.558-5.765Z" fill="#fff"/>
    <polygon points="50.853 95.369 49.855 86.514 47.336 64.18 47.412 106.743 59.573 106.743 59.571 90.63 58.682 91.114 50.853 95.369" fill="#fff"/>
    <polygon points="0 47.775 0 59.936 46.857 59.936 45.496 47.864 0 47.775" fill="#fff"/>
    <polygon points="59.73 38.322 59.642 0 47.481 0 47.484 28.823 54.185 34.02 59.73 38.322" fill="#fff"/>
    <polygon points="106.817 47.775 71.915 47.775 87.591 59.936 106.817 59.936 106.817 47.775" fill="#fff"/>
    <path d="M9.853,32.689a19.284,19.284,0,0,0,9.13,2.019.525.525,0,0,1,.487.406l1.043,6.948c4.271-1.419,14.9-5.853,12.14-11.759-2.558-5.48-8.4-9.691-13.686-12.548a64.733,64.733,0,0,0-9.359-4.119C8.964,17.084,6.736,30.915,9.853,32.689Z" fill="#fff"/>
    <path d="M37.123,25.3c1.145-3.075,4.263-13.639-4.646-18.621-5.885-3.294-14.1-5.206-19.084.5C22.145,10.748,32,17.3,37.123,25.3Z" fill="#fff"/>
    <polygon points="50.507 38.761 55.817 85.842 68.388 79.009 81.483 100.265 88.877 95.708 76.03 74.854 88.382 68.143 50.507 38.761" fill="#fff"/>
  </g>
</svg>
